<svg width="130" height="135" viewBox="0 0 130 135" fill="none" xmlns="http://www.w3.org/2000/svg">
<mask id="mask0_56_1925" style="mask-type:luminance" maskUnits="userSpaceOnUse" x="41" y="32" width="42" height="5">
<path d="M41.9773 32.7259H82.4773V36.6432H41.9773V32.7259Z" fill="white"/>
</mask>
<g mask="url(#mask0_56_1925)">
<path d="M41.9773 32.7259H82.4819V36.6432H41.9773V32.7259Z" fill="white"/>
</g>
<mask id="mask1_56_1925" style="mask-type:luminance" maskUnits="userSpaceOnUse" x="17" y="110" width="89" height="4">
<path d="M17.8254 110.348H105.702V113.663H17.8254V110.348Z" fill="white"/>
</mask>
<g mask="url(#mask1_56_1925)">
<mask id="mask2_56_1925" style="mask-type:luminance" maskUnits="userSpaceOnUse" x="17" y="110" width="89" height="4">
<path d="M19.4504 110.348H104.072C104.503 110.348 104.916 110.519 105.221 110.824C105.526 111.128 105.697 111.542 105.697 111.973V112.038C105.697 112.469 105.526 112.882 105.221 113.187C104.916 113.492 104.503 113.663 104.072 113.663H19.4504C19.0194 113.663 18.6067 113.492 18.302 113.187C17.9967 112.882 17.8254 112.469 17.8254 112.038V111.973C17.8254 111.542 17.9967 111.128 18.302 110.824C18.6067 110.519 19.0194 110.348 19.4504 110.348Z" fill="white"/>
</mask>
<g mask="url(#mask2_56_1925)">
<path d="M17.8254 110.348H105.702V113.663H17.8254V110.348Z" fill="white"/>
</g>
</g>
<mask id="mask3_56_1925" style="mask-type:luminance" maskUnits="userSpaceOnUse" x="39" y="51" width="9" height="41">
<path d="M39.5 51.8333H47.1667V91.1667H39.5V51.8333Z" fill="white"/>
</mask>
<g mask="url(#mask3_56_1925)">
<mask id="mask4_56_1925" style="mask-type:luminance" maskUnits="userSpaceOnUse" x="39" y="51" width="9" height="41">
<path d="M43.3986 51.8451L47.0529 90.7781L43.1675 91.1427L39.5132 52.2097L43.3986 51.8451Z" fill="white"/>
</mask>
<g mask="url(#mask4_56_1925)">
<path d="M43.3986 51.8451L47.0522 90.7748L43.1668 91.1394L39.5132 52.2097L43.3986 51.8451Z" fill="white"/>
</g>
</g>
<mask id="mask5_56_1925" style="mask-type:luminance" maskUnits="userSpaceOnUse" x="76" y="51" width="9" height="41">
<path d="M76.6667 51.8333H84.8334V91.1667H76.6667V51.8333Z" fill="white"/>
</mask>
<g mask="url(#mask5_56_1925)">
<mask id="mask6_56_1925" style="mask-type:luminance" maskUnits="userSpaceOnUse" x="76" y="51" width="9" height="41">
<path d="M76.8203 90.7279L80.9505 51.8457L84.8307 52.2578L80.7005 91.14L76.8203 90.7279Z" fill="white"/>
</mask>
<g mask="url(#mask6_56_1925)">
<path d="M76.8203 90.7279L80.9505 51.8457L84.8307 52.2578L80.7005 91.14L76.8203 90.7279Z" fill="white"/>
</g>
</g>
<mask id="mask7_56_1925" style="mask-type:luminance" maskUnits="userSpaceOnUse" x="32" y="89" width="61" height="5">
<path d="M32.2078 89.6341H92.4291V93.5059H32.2078V89.6341Z" fill="white"/>
</mask>
<g mask="url(#mask7_56_1925)">
<mask id="mask8_56_1925" style="mask-type:luminance" maskUnits="userSpaceOnUse" x="32" y="89" width="61" height="5">
<path d="M34.1433 89.6341H90.4845C91.5535 89.6341 92.42 90.5007 92.42 91.5697C92.42 92.6387 91.5535 93.5059 90.4845 93.5059H34.1433C33.0743 93.5059 32.2078 92.6387 32.2078 91.5697C32.2078 90.5007 33.0743 89.6341 34.1433 89.6341Z" fill="white"/>
</mask>
<g mask="url(#mask8_56_1925)">
<path d="M32.2078 89.6341H92.4141V93.5059H32.2078V89.6341Z" fill="white"/>
</g>
</g>
<mask id="mask9_56_1925" style="mask-type:luminance" maskUnits="userSpaceOnUse" x="26" y="91" width="10" height="21">
<path d="M26 91.1667H35.3333V111.333H26V91.1667Z" fill="white"/>
</mask>
<g mask="url(#mask9_56_1925)">
<mask id="mask10_56_1925" style="mask-type:luminance" maskUnits="userSpaceOnUse" x="26" y="91" width="10" height="21">
<path d="M32.28 91.3014L35.2787 92.2669L29.1498 111.298L26.1511 110.332L32.28 91.3014Z" fill="white"/>
</mask>
<g mask="url(#mask10_56_1925)">
<path d="M32.2798 91.3014L35.2785 92.2669L29.1483 111.303L26.1489 110.338L32.2798 91.3014Z" fill="white"/>
</g>
</g>
<mask id="mask11_56_1925" style="mask-type:luminance" maskUnits="userSpaceOnUse" x="89" y="91" width="9" height="21">
<path d="M89 91H97.1667V111.333H89V91Z" fill="white"/>
</mask>
<g mask="url(#mask11_56_1925)">
<mask id="mask12_56_1925" style="mask-type:luminance" maskUnits="userSpaceOnUse" x="89" y="91" width="9" height="21">
<path d="M89.0266 91.9701L92.4563 91.1504L97.0774 110.478L93.6477 111.298L89.0266 91.9701Z" fill="white"/>
</mask>
<g mask="url(#mask12_56_1925)">
<path d="M89.0266 91.9701L92.4563 91.1504L97.0787 110.483L93.649 111.303L89.0266 91.9701Z" fill="white"/>
</g>
</g>
<mask id="mask13_56_1925" style="mask-type:luminance" maskUnits="userSpaceOnUse" x="39" y="51" width="46" height="4">
<path d="M39.6926 51.8463H84.5917V54.8476H39.6926V51.8463Z" fill="white"/>
</mask>
<g mask="url(#mask13_56_1925)">
<path d="M39.6926 51.8463H84.5911V54.8476H39.6926V51.8463Z" fill="white"/>
</g>
<mask id="mask14_56_1925" style="mask-type:luminance" maskUnits="userSpaceOnUse" x="12" y="109" width="5" height="5">
<path d="M12.7527 109.438H16.1479V113.165H12.7527V109.438Z" fill="white"/>
</mask>
<g mask="url(#mask14_56_1925)">
<mask id="mask15_56_1925" style="mask-type:luminance" maskUnits="userSpaceOnUse" x="12" y="109" width="5" height="5">
<path d="M14.3777 109.438H14.5229C14.9539 109.438 15.3673 109.609 15.672 109.914C15.9766 110.219 16.1479 110.632 16.1479 111.063V111.533C16.1479 111.964 15.9766 112.377 15.672 112.682C15.3673 112.986 14.9539 113.158 14.5229 113.158H14.3777C13.9467 113.158 13.5333 112.986 13.2286 112.682C12.9239 112.377 12.7527 111.964 12.7527 111.533V111.063C12.7527 110.632 12.9239 110.219 13.2286 109.914C13.5333 109.609 13.9467 109.438 14.3777 109.438Z" fill="white"/>
</mask>
<g mask="url(#mask15_56_1925)">
<path d="M12.7527 109.438H16.1479V113.152H12.7527V109.438Z" fill="white"/>
</g>
</g>
<mask id="mask16_56_1925" style="mask-type:luminance" maskUnits="userSpaceOnUse" x="108" y="109" width="5" height="5">
<path d="M108.534 109.438H112.456V113.667H108.534V109.438Z" fill="white"/>
</mask>
<g mask="url(#mask16_56_1925)">
<mask id="mask17_56_1925" style="mask-type:luminance" maskUnits="userSpaceOnUse" x="108" y="109" width="5" height="5">
<path d="M110.159 109.438H110.831C111.262 109.438 111.676 109.609 111.98 109.914C112.285 110.219 112.456 110.632 112.456 111.063V112.038C112.456 112.469 112.285 112.882 111.98 113.187C111.676 113.492 111.262 113.663 110.831 113.663H110.159C109.728 113.663 109.315 113.492 109.01 113.187C108.706 112.882 108.534 112.469 108.534 112.038V111.063C108.534 110.632 108.706 110.219 109.01 109.914C109.315 109.609 109.728 109.438 110.159 109.438Z" fill="white"/>
</mask>
<g mask="url(#mask17_56_1925)">
<path d="M108.534 109.438H112.456V113.667H108.534V109.438Z" fill="white"/>
</g>
</g>
<mask id="mask18_56_1925" style="mask-type:luminance" maskUnits="userSpaceOnUse" x="36" y="44" width="52" height="5">
<path d="M36.5598 44.6283H87.1008V48.5456H36.5598V44.6283Z" fill="white"/>
</mask>
<g mask="url(#mask18_56_1925)">
<path d="M36.5598 44.6283H87.1028V48.5456H36.5598V44.6283Z" fill="white"/>
</g>
<mask id="mask19_56_1925" style="mask-type:luminance" maskUnits="userSpaceOnUse" x="55" y="39" width="33" height="4">
<path d="M55.5574 39.2852H87.1648V42.7949H55.5574V39.2852Z" fill="white"/>
</mask>
<g mask="url(#mask19_56_1925)">
<path d="M55.5574 39.2852H87.1583V42.7949H55.5574V39.2852Z" fill="white"/>
</g>
<mask id="mask20_56_1925" style="mask-type:luminance" maskUnits="userSpaceOnUse" x="36" y="39" width="18" height="4">
<path d="M36.5598 39.2852H53.4146V42.1888H36.5598V39.2852Z" fill="white"/>
</mask>
<g mask="url(#mask20_56_1925)">
<path d="M36.5598 39.2852H53.4133V42.1888H36.5598V39.2852Z" fill="white"/>
</g>
<mask id="mask21_56_1925" style="mask-type:luminance" maskUnits="userSpaceOnUse" x="46" y="59" width="5" height="5">
<path d="M46.8738 59.2975H50.7957V63.526H46.8738V59.2975Z" fill="white"/>
</mask>
<g mask="url(#mask21_56_1925)">
<mask id="mask22_56_1925" style="mask-type:luminance" maskUnits="userSpaceOnUse" x="46" y="59" width="5" height="5">
<path d="M48.4988 59.2975H49.1707C49.6016 59.2975 50.0151 59.4687 50.3197 59.7734C50.6244 60.0781 50.7957 60.4915 50.7957 60.9225V61.8971C50.7957 62.3281 50.6244 62.7415 50.3197 63.0462C50.0151 63.3509 49.6016 63.5221 49.1707 63.5221H48.4988C48.0678 63.5221 47.6544 63.3509 47.3497 63.0462C47.045 62.7415 46.8738 62.3281 46.8738 61.8971V60.9225C46.8738 60.4915 47.045 60.0781 47.3497 59.7734C47.6544 59.4687 48.0678 59.2975 48.4988 59.2975Z" fill="white"/>
</mask>
<g mask="url(#mask22_56_1925)">
<path d="M46.8738 59.2975H50.7957V63.526H46.8738V59.2975Z" fill="white"/>
</g>
</g>
<mask id="mask23_56_1925" style="mask-type:luminance" maskUnits="userSpaceOnUse" x="54" y="58" width="16" height="21">
<path d="M54.1667 58.6667H69.1667V78.8334H54.1667V58.6667Z" fill="white"/>
</mask>
<g mask="url(#mask23_56_1925)">
<mask id="mask24_56_1925" style="mask-type:luminance" maskUnits="userSpaceOnUse" x="50" y="55" width="25" height="28">
<path d="M60.5509 55.6165L74.9298 62.9141L65.0307 82.4206L50.6511 75.1237L60.5509 55.6165Z" fill="white"/>
</mask>
<g mask="url(#mask24_56_1925)">
<mask id="mask25_56_1925" style="mask-type:luminance" maskUnits="userSpaceOnUse" x="50" y="55" width="25" height="28">
<path d="M60.5509 55.6165L74.9298 62.9141L65.0307 82.4206L50.6511 75.1237L60.5509 55.6165Z" fill="white"/>
</mask>
<g mask="url(#mask25_56_1925)">
<mask id="mask26_56_1925" style="mask-type:luminance" maskUnits="userSpaceOnUse" x="50" y="55" width="20" height="25">
<path d="M60.5507 55.6165L69.162 59.987L59.2376 79.5423L50.6262 75.1725L60.5507 55.6165Z" fill="white"/>
</mask>
<g mask="url(#mask26_56_1925)">
<path d="M59.0248 77.8053C58.7976 78.1231 58.5104 78.3939 58.1823 78.6061C58.1804 78.6074 58.1784 78.6087 58.1765 78.61C57.9395 78.763 57.6446 78.7708 57.39 78.5977C54.0599 76.3359 53.0729 70.3522 55.6621 65.25C58.4063 59.8418 63.4108 57.3991 67.9538 59.3789C68.3106 59.5345 68.625 59.7643 68.9252 60.0026C69.0723 60.1191 69.0482 60.3314 68.8815 60.3971C65.2963 61.8138 62.8334 63.4323 61.4629 66.7214C60.972 67.8991 60.6615 69.5137 60.4838 71.1113C60.3093 72.6126 60.625 75.5638 59.0248 77.8053Z" fill="white"/>
</g>
</g>
</g>
</g>
<mask id="mask27_56_1925" style="mask-type:luminance" maskUnits="userSpaceOnUse" x="59" y="60" width="13" height="20">
<path d="M59.1667 60.8333H71.6667V79.6667H59.1667V60.8333Z" fill="white"/>
</mask>
<g mask="url(#mask27_56_1925)">
<mask id="mask28_56_1925" style="mask-type:luminance" maskUnits="userSpaceOnUse" x="50" y="55" width="25" height="28">
<path d="M60.5509 55.6165L74.9298 62.9141L65.0307 82.4206L50.6511 75.1237L60.5509 55.6165Z" fill="white"/>
</mask>
<g mask="url(#mask28_56_1925)">
<mask id="mask29_56_1925" style="mask-type:luminance" maskUnits="userSpaceOnUse" x="50" y="55" width="25" height="28">
<path d="M60.5509 55.6165L74.9298 62.9141L65.0307 82.4206L50.6511 75.1237L60.5509 55.6165Z" fill="white"/>
</mask>
<g mask="url(#mask29_56_1925)">
<path d="M69.9766 72.7214C67.6218 77.362 63.3451 80.0801 59.7358 79.5182C59.2716 79.446 59.0678 78.8919 59.3686 78.5306C59.8894 77.9056 60.3601 77.2324 60.7058 76.4876C62.5092 72.6035 61.3666 70.5039 62.4376 67.8939C63.4343 65.4636 64.8106 63.418 68.1459 61.4408C68.5079 61.2259 68.894 61.0521 69.295 60.9238C69.5138 60.7975 69.8093 60.8666 69.9695 61.0768C72.0352 63.7943 72.1511 68.4369 69.9766 72.7214Z" fill="white"/>
</g>
</g>
</g>
<mask id="mask30_56_1925" style="mask-type:luminance" maskUnits="userSpaceOnUse" x="40" y="46" width="7" height="8">
<path d="M40.3333 46.5H46.1666V53.8333H40.3333V46.5Z" fill="white"/>
</mask>
<g mask="url(#mask30_56_1925)">
<mask id="mask31_56_1925" style="mask-type:luminance" maskUnits="userSpaceOnUse" x="40" y="46" width="7" height="8">
<path d="M40.4387 47.3978L44.9908 46.5872L46.1275 52.9681L41.5754 53.7793L40.4387 47.3978Z" fill="white"/>
</mask>
<g mask="url(#mask31_56_1925)">
<path d="M40.4387 47.3978L44.9908 46.5872L46.1282 52.9707L41.5761 53.7812L40.4387 47.3978Z" fill="white"/>
</g>
</g>
<mask id="mask32_56_1925" style="mask-type:luminance" maskUnits="userSpaceOnUse" x="77" y="46" width="7" height="8">
<path d="M77.8333 46.3333H83.8333V53.8333H77.8333V46.3333Z" fill="white"/>
</mask>
<g mask="url(#mask32_56_1925)">
<mask id="mask33_56_1925" style="mask-type:luminance" maskUnits="userSpaceOnUse" x="77" y="46" width="7" height="8">
<path d="M79.2485 46.4694L83.7681 47.4434L82.4028 53.7793L77.8833 52.8053L79.2485 46.4694Z" fill="white"/>
</mask>
<g mask="url(#mask33_56_1925)">
<path d="M79.2482 46.4694L83.7677 47.4434L82.4019 53.7819L77.8823 52.8079L79.2482 46.4694Z" fill="white"/>
</g>
</g>
<mask id="mask34_56_1925" style="mask-type:luminance" maskUnits="userSpaceOnUse" x="82" y="40" width="6" height="7">
<path d="M82.4773 40.1055H87.101V46.5872H82.4773V40.1055Z" fill="white"/>
</mask>
<g mask="url(#mask34_56_1925)">
<path d="M82.4773 40.1055H87.101V46.5898H82.4773V40.1055Z" fill="white"/>
</g>
<mask id="mask35_56_1925" style="mask-type:luminance" maskUnits="userSpaceOnUse" x="36" y="40" width="6" height="8">
<path d="M36.5598 40.737H41.1835V47.2181H36.5598V40.737Z" fill="white"/>
</mask>
<g mask="url(#mask35_56_1925)">
<path d="M36.5598 40.737H41.1835V47.2207H36.5598V40.737Z" fill="white"/>
</g>
<mask id="mask36_56_1925" style="mask-type:luminance" maskUnits="userSpaceOnUse" x="39" y="32" width="8" height="10">
<path d="M39.6667 32.8333H46.1667V41.5H39.6667V32.8333Z" fill="white"/>
</mask>
<g mask="url(#mask36_56_1925)">
<mask id="mask37_56_1925" style="mask-type:luminance" maskUnits="userSpaceOnUse" x="39" y="32" width="8" height="10">
<path d="M41.6624 32.851L46.1279 34.0516L44.1579 41.3784L39.6924 40.1779L41.6624 32.851Z" fill="white"/>
</mask>
<g mask="url(#mask37_56_1925)">
<path d="M41.6625 32.8509L46.128 34.0514L44.1586 41.3769L39.6931 40.1764L41.6625 32.8509Z" fill="white"/>
</g>
</g>
<mask id="mask38_56_1925" style="mask-type:luminance" maskUnits="userSpaceOnUse" x="78" y="32" width="8" height="10">
<path d="M78 32.8333H85.3333V41.8333H78V32.8333Z" fill="white"/>
</mask>
<g mask="url(#mask38_56_1925)">
<mask id="mask39_56_1925" style="mask-type:luminance" maskUnits="userSpaceOnUse" x="78" y="32" width="8" height="10">
<path d="M78.0605 34.5898L82.4772 32.8509L85.3099 40.0443L80.8932 41.7832L78.0605 34.5898Z" fill="white"/>
</mask>
<g mask="url(#mask39_56_1925)">
<path d="M78.0605 34.5898L82.4772 32.8509L85.3099 40.0449L80.8932 41.7838L78.0605 34.5898Z" fill="white"/>
</g>
</g>
<mask id="mask40_56_1925" style="mask-type:luminance" maskUnits="userSpaceOnUse" x="81" y="58" width="15" height="6">
<path d="M81.4602 58.5189H95.0819V63.6172H81.4602V58.5189Z" fill="white"/>
</mask>
<g mask="url(#mask40_56_1925)">
<mask id="mask41_56_1925" style="mask-type:luminance" maskUnits="userSpaceOnUse" x="81" y="58" width="15" height="6">
<path d="M84.009 58.5189H92.524C93.9316 58.5189 95.0728 59.6602 95.0728 61.0677C95.0728 62.4759 93.9316 63.6172 92.524 63.6172H84.009C82.6015 63.6172 81.4602 62.4759 81.4602 61.0677C81.4602 59.6602 82.6015 58.5189 84.009 58.5189Z" fill="white"/>
</mask>
<g mask="url(#mask41_56_1925)">
<path d="M81.4602 58.5189H95.0819V63.6172H81.4602V58.5189Z" fill="white"/>
</g>
</g>
<mask id="mask42_56_1925" style="mask-type:luminance" maskUnits="userSpaceOnUse" x="90" y="61" width="6" height="23">
<path d="M90.2676 61.0677H95.0729V83.041H90.2676V61.0677Z" fill="white"/>
</mask>
<g mask="url(#mask42_56_1925)">
<path d="M90.2676 61.0677H95.0729V83.0482H90.2676V61.0677Z" fill="white"/>
</g>
<mask id="mask43_56_1925" style="mask-type:luminance" maskUnits="userSpaceOnUse" x="79" y="80" width="17" height="7">
<path d="M79.4114 80.3672H95.0904V86.1341H79.4114V80.3672Z" fill="white"/>
</mask>
<g mask="url(#mask43_56_1925)">
<mask id="mask44_56_1925" style="mask-type:luminance" maskUnits="userSpaceOnUse" x="79" y="80" width="17" height="7">
<path d="M82.2948 80.3672H92.1894C93.7818 80.3672 95.0728 81.6582 95.0728 83.2507C95.0728 84.8431 93.7818 86.1341 92.1894 86.1341H82.2948C80.7024 86.1341 79.4114 84.8431 79.4114 83.2507C79.4114 81.6582 80.7024 80.3672 82.2948 80.3672Z" fill="white"/>
</mask>
<g mask="url(#mask44_56_1925)">
<path d="M79.4114 80.3672H95.0676V86.1341H79.4114V80.3672Z" fill="white"/>
</g>
</g>
<mask id="mask45_56_1925" style="mask-type:luminance" maskUnits="userSpaceOnUse" x="35" y="96" width="6" height="4">
<path d="M35.2468 96.0886H40.3875V99.9362H35.2468V96.0886Z" fill="white"/>
</mask>
<g mask="url(#mask45_56_1925)">
<mask id="mask46_56_1925" style="mask-type:luminance" maskUnits="userSpaceOnUse" x="35" y="96" width="6" height="4">
<path d="M36.53 96.0886H40.3777L39.0951 99.9362H35.2468L36.53 96.0886Z" fill="white"/>
</mask>
<g mask="url(#mask46_56_1925)">
<path d="M35.2468 96.0886H40.3725V99.9362H35.2468V96.0886Z" fill="white"/>
</g>
</g>
<mask id="mask47_56_1925" style="mask-type:luminance" maskUnits="userSpaceOnUse" x="40" y="96" width="7" height="4">
<path d="M40.9973 96.0886H46.1373V99.9362H40.9973V96.0886Z" fill="white"/>
</mask>
<g mask="url(#mask47_56_1925)">
<mask id="mask48_56_1925" style="mask-type:luminance" maskUnits="userSpaceOnUse" x="40" y="96" width="7" height="4">
<path d="M42.2799 96.0886H46.1275L44.845 99.9362H40.9973L42.2799 96.0886Z" fill="white"/>
</mask>
<g mask="url(#mask48_56_1925)">
<path d="M40.9973 96.0886H46.1223V99.9362H40.9973V96.0886Z" fill="white"/>
</g>
</g>
<mask id="mask49_56_1925" style="mask-type:luminance" maskUnits="userSpaceOnUse" x="46" y="96" width="6" height="4">
<path d="M46.7473 96.0886H51.8873V99.9362H46.7473V96.0886Z" fill="white"/>
</mask>
<g mask="url(#mask49_56_1925)">
<mask id="mask50_56_1925" style="mask-type:luminance" maskUnits="userSpaceOnUse" x="46" y="96" width="6" height="4">
<path d="M48.0299 96.0886H51.8775L50.595 99.9362H46.7473L48.0299 96.0886Z" fill="white"/>
</mask>
<g mask="url(#mask50_56_1925)">
<path d="M46.7473 96.0886H51.8723V99.9362H46.7473V96.0886Z" fill="white"/>
</g>
</g>
<mask id="mask51_56_1925" style="mask-type:luminance" maskUnits="userSpaceOnUse" x="33" y="102" width="6" height="5">
<path d="M33.741 102.436H38.8816V106.285H33.741V102.436Z" fill="white"/>
</mask>
<g mask="url(#mask51_56_1925)">
<mask id="mask52_56_1925" style="mask-type:luminance" maskUnits="userSpaceOnUse" x="33" y="102" width="6" height="5">
<path d="M35.0242 102.436H38.8718L37.5893 106.285H33.741L35.0242 102.436Z" fill="white"/>
</mask>
<g mask="url(#mask52_56_1925)">
<path d="M33.741 102.436H38.8666V106.285H33.741V102.436Z" fill="white"/>
</g>
</g>
<mask id="mask53_56_1925" style="mask-type:luminance" maskUnits="userSpaceOnUse" x="39" y="102" width="6" height="5">
<path d="M39.4114 102.436H44.552V106.285H39.4114V102.436Z" fill="white"/>
</mask>
<g mask="url(#mask53_56_1925)">
<mask id="mask54_56_1925" style="mask-type:luminance" maskUnits="userSpaceOnUse" x="39" y="102" width="6" height="5">
<path d="M40.6946 102.436H44.5422L43.2597 106.285H39.4114L40.6946 102.436Z" fill="white"/>
</mask>
<g mask="url(#mask54_56_1925)">
<path d="M39.4114 102.436H44.537V106.285H39.4114V102.436Z" fill="white"/>
</g>
</g>
<mask id="mask55_56_1925" style="mask-type:luminance" maskUnits="userSpaceOnUse" x="83" y="96" width="7" height="5">
<path d="M83.8958 96.3809H89.0364V100.229H83.8958V96.3809Z" fill="white"/>
</mask>
<g mask="url(#mask55_56_1925)">
<mask id="mask56_56_1925" style="mask-type:luminance" maskUnits="userSpaceOnUse" x="83" y="96" width="7" height="5">
<path d="M87.7441 96.3809H83.8958L85.1783 100.229H89.0266L87.7441 96.3809Z" fill="white"/>
</mask>
<g mask="url(#mask56_56_1925)">
<path d="M83.8958 96.3809H89.0214V100.229H83.8958V96.3809Z" fill="white"/>
</g>
</g>
<mask id="mask57_56_1925" style="mask-type:luminance" maskUnits="userSpaceOnUse" x="78" y="96" width="6" height="4">
<path d="M78.1406 96.0886H83.2813V99.9362H78.1406V96.0886Z" fill="white"/>
</mask>
<g mask="url(#mask57_56_1925)">
<mask id="mask58_56_1925" style="mask-type:luminance" maskUnits="userSpaceOnUse" x="78" y="96" width="6" height="4">
<path d="M81.9883 96.0886H78.1406L79.4232 99.9362H83.2708L81.9883 96.0886Z" fill="white"/>
</mask>
<g mask="url(#mask58_56_1925)">
<path d="M78.1406 96.0886H83.2663V99.9362H78.1406V96.0886Z" fill="white"/>
</g>
</g>
<mask id="mask59_56_1925" style="mask-type:luminance" maskUnits="userSpaceOnUse" x="72" y="96" width="6" height="4">
<path d="M72.3848 96.0886H77.5254V99.9362H72.3848V96.0886Z" fill="white"/>
</mask>
<g mask="url(#mask59_56_1925)">
<mask id="mask60_56_1925" style="mask-type:luminance" maskUnits="userSpaceOnUse" x="72" y="96" width="6" height="4">
<path d="M76.2331 96.0886H72.3848L73.6673 99.9362H77.5156L76.2331 96.0886Z" fill="white"/>
</mask>
<g mask="url(#mask60_56_1925)">
<path d="M72.3848 96.0886H77.5104V99.9362H72.3848V96.0886Z" fill="white"/>
</g>
</g>
<mask id="mask61_56_1925" style="mask-type:luminance" maskUnits="userSpaceOnUse" x="46" y="102" width="24" height="5">
<path d="M46.3164 102.436H69.3431V106.285H46.3164V102.436Z" fill="white"/>
</mask>
<g mask="url(#mask61_56_1925)">
<mask id="mask62_56_1925" style="mask-type:luminance" maskUnits="userSpaceOnUse" x="46" y="102" width="24" height="5">
<path d="M47.9414 102.436H67.7148C68.1458 102.436 68.5592 102.607 68.8639 102.912C69.1686 103.217 69.3398 103.63 69.3398 104.061V104.66C69.3398 105.091 69.1686 105.504 68.8639 105.809C68.5592 106.113 68.1458 106.285 67.7148 106.285H47.9414C47.5104 106.285 47.097 106.113 46.7923 105.809C46.4876 105.504 46.3164 105.091 46.3164 104.66V104.061C46.3164 103.63 46.4876 103.217 46.7923 102.912C47.097 102.607 47.5104 102.436 47.9414 102.436Z" fill="white"/>
</mask>
<g mask="url(#mask62_56_1925)">
<path d="M46.3164 102.436H69.3431V106.285H46.3164V102.436Z" fill="white"/>
</g>
</g>
<mask id="mask63_56_1925" style="mask-type:luminance" maskUnits="userSpaceOnUse" x="66" y="96" width="6" height="4">
<path d="M66.6296 96.1309H71.7703V99.9785H66.6296V96.1309Z" fill="white"/>
</mask>
<g mask="url(#mask63_56_1925)">
<mask id="mask64_56_1925" style="mask-type:luminance" maskUnits="userSpaceOnUse" x="66" y="96" width="6" height="4">
<path d="M70.4773 96.1309H66.6296L67.9122 99.9785H71.7598L70.4773 96.1309Z" fill="white"/>
</mask>
<g mask="url(#mask64_56_1925)">
<path d="M66.6296 96.1309H71.7553V99.9785H66.6296V96.1309Z" fill="white"/>
</g>
</g>
<mask id="mask65_56_1925" style="mask-type:luminance" maskUnits="userSpaceOnUse" x="52" y="96" width="6" height="4">
<path d="M52.5027 96.0469H57.6433V99.8952H52.5027V96.0469Z" fill="white"/>
</mask>
<g mask="url(#mask65_56_1925)">
<mask id="mask66_56_1925" style="mask-type:luminance" maskUnits="userSpaceOnUse" x="52" y="96" width="6" height="4">
<path d="M53.7852 96.0469H57.6329L56.3503 99.8952H52.5027L53.7852 96.0469Z" fill="white"/>
</mask>
<g mask="url(#mask66_56_1925)">
<path d="M52.5027 96.0469H57.6283V99.8952H52.5027V96.0469Z" fill="white"/>
</g>
</g>
<mask id="mask67_56_1925" style="mask-type:luminance" maskUnits="userSpaceOnUse" x="60" y="96" width="6" height="4">
<path d="M60.8738 96.1309H66.0001V99.9785H60.8738V96.1309Z" fill="white"/>
</mask>
<g mask="url(#mask67_56_1925)">
<mask id="mask68_56_1925" style="mask-type:luminance" maskUnits="userSpaceOnUse" x="60" y="96" width="7" height="4">
<path d="M64.7221 96.1309H60.8738L62.1563 99.9785H66.0046L64.7221 96.1309Z" fill="white"/>
</mask>
<g mask="url(#mask68_56_1925)">
<path d="M60.8738 96.1309H65.9994V99.9785H60.8738V96.1309Z" fill="white"/>
</g>
</g>
<mask id="mask69_56_1925" style="mask-type:luminance" maskUnits="userSpaceOnUse" x="84" y="102" width="6" height="4">
<path d="M84.3933 102.104H89.5339V105.951H84.3933V102.104Z" fill="white"/>
</mask>
<g mask="url(#mask69_56_1925)">
<mask id="mask70_56_1925" style="mask-type:luminance" maskUnits="userSpaceOnUse" x="84" y="102" width="6" height="4">
<path d="M88.2416 102.104H84.3933L85.6765 105.951H89.5242L88.2416 102.104Z" fill="white"/>
</mask>
<g mask="url(#mask70_56_1925)">
<path d="M84.3933 102.104H89.519V105.951H84.3933V102.104Z" fill="white"/>
</g>
</g>
<mask id="mask71_56_1925" style="mask-type:luminance" maskUnits="userSpaceOnUse" x="78" y="101" width="6" height="5">
<path d="M78.6379 101.811H83.7786V105.66H78.6379V101.811Z" fill="white"/>
</mask>
<g mask="url(#mask71_56_1925)">
<mask id="mask72_56_1925" style="mask-type:luminance" maskUnits="userSpaceOnUse" x="78" y="101" width="6" height="5">
<path d="M82.4856 101.811H78.6379L79.9205 105.66H83.7681L82.4856 101.811Z" fill="white"/>
</mask>
<g mask="url(#mask72_56_1925)">
<path d="M78.6379 101.811H83.7636V105.66H78.6379V101.811Z" fill="white"/>
</g>
</g>
<mask id="mask73_56_1925" style="mask-type:luminance" maskUnits="userSpaceOnUse" x="72" y="101" width="7" height="5">
<path d="M72.8821 101.811H78.0227V105.66H72.8821V101.811Z" fill="white"/>
</mask>
<g mask="url(#mask73_56_1925)">
<mask id="mask74_56_1925" style="mask-type:luminance" maskUnits="userSpaceOnUse" x="72" y="101" width="7" height="5">
<path d="M76.7304 101.811H72.8821L74.1653 105.66H78.0129L76.7304 101.811Z" fill="white"/>
</mask>
<g mask="url(#mask74_56_1925)">
<path d="M72.8821 101.811H78.0077V105.66H72.8821V101.811Z" fill="white"/>
</g>
</g>
<mask id="mask75_56_1925" style="mask-type:luminance" maskUnits="userSpaceOnUse" x="56" y="14" width="13" height="18">
<path d="M56.6667 14.6667H69.0001V31.1667H56.6667V14.6667Z" fill="white"/>
</mask>
<g mask="url(#mask75_56_1925)">
<mask id="mask76_56_1925" style="mask-type:luminance" maskUnits="userSpaceOnUse" x="51" y="12" width="22" height="21">
<path d="M57.6329 12.7962L72.1544 18.8945L66.3464 32.7246L51.825 26.6257L57.6329 12.7962Z" fill="white"/>
</mask>
<g mask="url(#mask76_56_1925)">
<mask id="mask77_56_1925" style="mask-type:luminance" maskUnits="userSpaceOnUse" x="51" y="12" width="22" height="21">
<path d="M72.2064 18.9167L57.6849 12.8177L51.877 26.6478L66.3984 32.7468L72.2064 18.9167Z" fill="white"/>
</mask>
<g mask="url(#mask77_56_1925)">
<path fill-rule="evenodd" clip-rule="evenodd" d="M59.8534 16.6244C66.7376 19.4785 69.0787 24.2357 66.6054 31.0091C66.5748 31.0938 66.6946 31.1497 66.7415 31.0723C67.9589 29.0313 68.7297 27.0293 68.901 25.0788C69.4661 18.6426 62.8456 14.987 57.1725 14.7162C56.8899 14.7025 56.7076 14.9981 56.843 15.2468C59.3912 19.9264 55.3521 28.0807 66.2161 28.3737C66.6607 23.2285 64.8502 19.1634 59.8534 16.6244Z" fill="white"/>
</g>
</g>
</g>
<mask id="mask78_56_1925" style="mask-type:luminance" maskUnits="userSpaceOnUse" x="43" y="83" width="37" height="3">
<path d="M43.5625 83.2507H79.4115V85.5827H43.5625V83.2507Z" fill="white"/>
</mask>
<g mask="url(#mask78_56_1925)">
<path d="M43.5625 83.2507H79.4154V85.5827H43.5625V83.2507Z" fill="white"/>
</g>
</svg>
