<svg width="247" height="247" viewBox="0 0 247 247" fill="none" xmlns="http://www.w3.org/2000/svg">
<mask id="mask0_33_7" style="mask-type:luminance" maskUnits="userSpaceOnUse" x="85" y="59" width="76" height="9">
<path d="M85.9509 59.8763H160.051V67.0435H85.9509V59.8763Z" fill="white"/>
</mask>
<g mask="url(#mask0_33_7)">
<path d="M85.9509 59.8763H160.059V67.0435H85.9509V59.8763Z" fill="white"/>
</g>
<mask id="mask1_33_7" style="mask-type:luminance" maskUnits="userSpaceOnUse" x="41" y="201" width="162" height="7">
<path d="M41.7622 201.895H202.543V207.961H41.7622V201.895Z" fill="white"/>
</mask>
<g mask="url(#mask1_33_7)">
<mask id="mask2_33_7" style="mask-type:luminance" maskUnits="userSpaceOnUse" x="41" y="201" width="162" height="7">
<path d="M44.7354 201.895H199.562C200.35 201.895 201.106 202.209 201.664 202.766C202.222 203.324 202.535 204.08 202.535 204.869V204.988C202.535 205.776 202.222 206.533 201.664 207.09C201.106 207.648 200.35 207.961 199.562 207.961H44.7354C43.9468 207.961 43.1916 207.648 42.6341 207.09C42.0755 206.533 41.7622 205.776 41.7622 204.988V204.869C41.7622 204.08 42.0755 203.324 42.6341 202.766C43.1916 202.209 43.9468 201.895 44.7354 201.895Z" fill="white"/>
</mask>
<g mask="url(#mask2_33_7)">
<path d="M41.7622 201.895H202.543V207.961H41.7622V201.895Z" fill="white"/>
</g>
</g>
<mask id="mask3_33_7" style="mask-type:luminance" maskUnits="userSpaceOnUse" x="81" y="94" width="15" height="73">
<path d="M81.4186 94.8358H95.4457V166.801H81.4186V94.8358Z" fill="white"/>
</mask>
<g mask="url(#mask3_33_7)">
<mask id="mask4_33_7" style="mask-type:luminance" maskUnits="userSpaceOnUse" x="81" y="94" width="15" height="73">
<path d="M88.5514 94.8573L95.2374 166.09L88.1285 166.757L81.4425 95.5243L88.5514 94.8573Z" fill="white"/>
</mask>
<g mask="url(#mask4_33_7)">
<path d="M88.5514 94.8573L95.2362 166.084L88.1273 166.751L81.4425 95.5243L88.5514 94.8573Z" fill="white"/>
</g>
</g>
<mask id="mask5_33_7" style="mask-type:luminance" maskUnits="userSpaceOnUse" x="149" y="94" width="16" height="73">
<path d="M149.42 94.8358H164.362V166.801H149.42V94.8358Z" fill="white"/>
</mask>
<g mask="url(#mask5_33_7)">
<mask id="mask6_33_7" style="mask-type:luminance" maskUnits="userSpaceOnUse" x="149" y="94" width="16" height="73">
<path d="M149.701 165.998L157.258 94.8585L164.357 95.6125L156.8 166.752L149.701 165.998Z" fill="white"/>
</mask>
<g mask="url(#mask6_33_7)">
<path d="M149.701 165.998L157.258 94.8585L164.357 95.6125L156.8 166.752L149.701 165.998Z" fill="white"/>
</g>
</g>
<mask id="mask7_33_7" style="mask-type:luminance" maskUnits="userSpaceOnUse" x="68" y="163" width="111" height="9">
<path d="M68.0763 163.997H178.259V171.081H68.0763V163.997Z" fill="white"/>
</mask>
<g mask="url(#mask7_33_7)">
<mask id="mask8_33_7" style="mask-type:luminance" maskUnits="userSpaceOnUse" x="68" y="163" width="111" height="9">
<path d="M71.6176 163.997H174.701C176.657 163.997 178.242 165.583 178.242 167.539C178.242 169.494 176.657 171.081 174.701 171.081H71.6176C69.6617 171.081 68.0763 169.494 68.0763 167.539C68.0763 165.583 69.6617 163.997 71.6176 163.997Z" fill="white"/>
</mask>
<g mask="url(#mask8_33_7)">
<path d="M68.0763 163.997H178.232V171.081H68.0763V163.997Z" fill="white"/>
</g>
</g>
<mask id="mask9_33_7" style="mask-type:luminance" maskUnits="userSpaceOnUse" x="56" y="166" width="18" height="38">
<path d="M56.7185 166.801H73.7951V203.699H56.7185V166.801Z" fill="white"/>
</mask>
<g mask="url(#mask9_33_7)">
<mask id="mask10_33_7" style="mask-type:luminance" maskUnits="userSpaceOnUse" x="56" y="167" width="18" height="37">
<path d="M68.2085 167.048L73.695 168.814L62.4814 203.634L56.9949 201.867L68.2085 167.048Z" fill="white"/>
</mask>
<g mask="url(#mask10_33_7)">
<path d="M68.2084 167.048L73.6949 168.814L62.4789 203.644L56.9912 201.877L68.2084 167.048Z" fill="white"/>
</g>
</g>
<mask id="mask11_33_7" style="mask-type:luminance" maskUnits="userSpaceOnUse" x="171" y="166" width="16" height="38">
<path d="M171.985 166.496H186.927V203.699H171.985V166.496Z" fill="white"/>
</mask>
<g mask="url(#mask11_33_7)">
<mask id="mask12_33_7" style="mask-type:luminance" maskUnits="userSpaceOnUse" x="172" y="166" width="15" height="38">
<path d="M172.034 168.271L178.309 166.771L186.764 202.134L180.489 203.633L172.034 168.271Z" fill="white"/>
</mask>
<g mask="url(#mask12_33_7)">
<path d="M172.034 168.271L178.309 166.771L186.766 202.143L180.491 203.643L172.034 168.271Z" fill="white"/>
</g>
</g>
<mask id="mask13_33_7" style="mask-type:luminance" maskUnits="userSpaceOnUse" x="81" y="94" width="83" height="7">
<path d="M81.7711 94.8596H163.92V100.351H81.7711V94.8596Z" fill="white"/>
</mask>
<g mask="url(#mask13_33_7)">
<path d="M81.7711 94.8596H163.919V100.351H81.7711V94.8596Z" fill="white"/>
</g>
<mask id="mask14_33_7" style="mask-type:luminance" maskUnits="userSpaceOnUse" x="32" y="200" width="7" height="8">
<path d="M32.4807 200.231H38.6926V207.05H32.4807V200.231Z" fill="white"/>
</mask>
<g mask="url(#mask14_33_7)">
<mask id="mask15_33_7" style="mask-type:luminance" maskUnits="userSpaceOnUse" x="32" y="200" width="7" height="8">
<path d="M35.4539 200.231H35.7195C36.508 200.231 37.2644 200.545 37.8219 201.102C38.3794 201.66 38.6926 202.416 38.6926 203.204V204.063C38.6926 204.852 38.3794 205.608 37.8219 206.166C37.2644 206.723 36.508 207.036 35.7195 207.036H35.4539C34.6653 207.036 33.9089 206.723 33.3515 206.166C32.794 205.608 32.4807 204.852 32.4807 204.063V203.204C32.4807 202.416 32.794 201.66 33.3515 201.102C33.9089 200.545 34.6653 200.231 35.4539 200.231Z" fill="white"/>
</mask>
<g mask="url(#mask15_33_7)">
<path d="M32.4807 200.231H38.6926V207.026H32.4807V200.231Z" fill="white"/>
</g>
</g>
<mask id="mask16_33_7" style="mask-type:luminance" maskUnits="userSpaceOnUse" x="207" y="200" width="8" height="8">
<path d="M207.726 200.231H214.902V207.968H207.726V200.231Z" fill="white"/>
</mask>
<g mask="url(#mask16_33_7)">
<mask id="mask17_33_7" style="mask-type:luminance" maskUnits="userSpaceOnUse" x="207" y="200" width="8" height="8">
<path d="M210.699 200.231H211.929C212.717 200.231 213.473 200.545 214.031 201.102C214.588 201.66 214.902 202.416 214.902 203.204V204.988C214.902 205.776 214.588 206.533 214.031 207.09C213.473 207.648 212.717 207.961 211.929 207.961H210.699C209.911 207.961 209.154 207.648 208.597 207.09C208.039 206.533 207.726 205.776 207.726 204.988V203.204C207.726 202.416 208.039 201.66 208.597 201.102C209.154 200.545 209.911 200.231 210.699 200.231Z" fill="white"/>
</mask>
<g mask="url(#mask17_33_7)">
<path d="M207.726 200.231H214.902V207.968H207.726V200.231Z" fill="white"/>
</g>
</g>
<mask id="mask18_33_7" style="mask-type:luminance" maskUnits="userSpaceOnUse" x="76" y="81" width="93" height="8">
<path d="M76.0392 81.6532H168.511V88.8204H76.0392V81.6532Z" fill="white"/>
</mask>
<g mask="url(#mask18_33_7)">
<path d="M76.0392 81.6532H168.514V88.8204H76.0392V81.6532Z" fill="white"/>
</g>
<mask id="mask19_33_7" style="mask-type:luminance" maskUnits="userSpaceOnUse" x="110" y="71" width="59" height="8">
<path d="M110.797 71.8773H168.627V78.2989H110.797V71.8773Z" fill="white"/>
</mask>
<g mask="url(#mask19_33_7)">
<path d="M110.797 71.8773H168.615V78.2989H110.797V71.8773Z" fill="white"/>
</g>
<mask id="mask20_33_7" style="mask-type:luminance" maskUnits="userSpaceOnUse" x="76" y="71" width="31" height="7">
<path d="M76.0392 71.8773H106.877V77.1899H76.0392V71.8773Z" fill="white"/>
</mask>
<g mask="url(#mask20_33_7)">
<path d="M76.0392 71.8773H106.875V77.1899H76.0392V71.8773Z" fill="white"/>
</g>
<mask id="mask21_33_7" style="mask-type:luminance" maskUnits="userSpaceOnUse" x="94" y="108" width="9" height="9">
<path d="M94.9097 108.492H102.085V116.229H94.9097V108.492Z" fill="white"/>
</mask>
<g mask="url(#mask21_33_7)">
<mask id="mask22_33_7" style="mask-type:luminance" maskUnits="userSpaceOnUse" x="94" y="108" width="9" height="9">
<path d="M97.8828 108.492H99.1121C99.9007 108.492 100.657 108.806 101.215 109.363C101.772 109.921 102.085 110.677 102.085 111.466V113.249C102.085 114.037 101.772 114.794 101.215 115.351C100.657 115.909 99.9007 116.222 99.1121 116.222H97.8828C97.0943 116.222 96.3379 115.909 95.7804 115.351C95.2229 114.794 94.9097 114.037 94.9097 113.249V111.466C94.9097 110.677 95.2229 109.921 95.7804 109.363C96.3379 108.806 97.0943 108.492 97.8828 108.492Z" fill="white"/>
</mask>
<g mask="url(#mask22_33_7)">
<path d="M94.9097 108.492H102.085V116.229H94.9097V108.492Z" fill="white"/>
</g>
</g>
<mask id="mask23_33_7" style="mask-type:luminance" maskUnits="userSpaceOnUse" x="108" y="107" width="28" height="38">
<path d="M108.253 107.338H135.697V144.236H108.253V107.338Z" fill="white"/>
</mask>
<g mask="url(#mask23_33_7)">
<mask id="mask24_33_7" style="mask-type:luminance" maskUnits="userSpaceOnUse" x="101" y="101" width="46" height="50">
<path d="M119.934 101.758L146.242 115.109L128.13 150.799L101.821 137.449L119.934 101.758Z" fill="white"/>
</mask>
<g mask="url(#mask24_33_7)">
<mask id="mask25_33_7" style="mask-type:luminance" maskUnits="userSpaceOnUse" x="101" y="101" width="46" height="50">
<path d="M119.934 101.758L146.242 115.109L128.13 150.799L101.821 137.449L119.934 101.758Z" fill="white"/>
</mask>
<g mask="url(#mask25_33_7)">
<mask id="mask26_33_7" style="mask-type:luminance" maskUnits="userSpaceOnUse" x="101" y="101" width="35" height="45">
<path d="M119.934 101.758L135.689 109.754L117.531 145.533L101.776 137.538L119.934 101.758Z" fill="white"/>
</mask>
<g mask="url(#mask26_33_7)">
<path d="M117.142 142.355C116.726 142.936 116.201 143.432 115.6 143.82C115.597 143.822 115.593 143.825 115.59 143.827C115.156 144.107 114.616 144.121 114.151 143.805C108.058 139.666 106.252 128.718 110.989 119.383C116.01 109.488 125.166 105.019 133.478 108.641C134.131 108.926 134.707 109.347 135.256 109.783C135.525 109.996 135.481 110.384 135.176 110.504C128.616 113.096 124.11 116.058 121.603 122.075C120.704 124.23 120.136 127.184 119.811 130.107C119.492 132.854 120.069 138.254 117.142 142.355Z" fill="white"/>
</g>
</g>
</g>
</g>
<mask id="mask27_33_7" style="mask-type:luminance" maskUnits="userSpaceOnUse" x="117" y="111" width="24" height="35">
<path d="M117.401 111.302H140.272V145.76H117.401V111.302Z" fill="white"/>
</mask>
<g mask="url(#mask27_33_7)">
<mask id="mask28_33_7" style="mask-type:luminance" maskUnits="userSpaceOnUse" x="101" y="101" width="46" height="50">
<path d="M119.934 101.758L146.242 115.109L128.13 150.799L101.821 137.449L119.934 101.758Z" fill="white"/>
</mask>
<g mask="url(#mask28_33_7)">
<mask id="mask29_33_7" style="mask-type:luminance" maskUnits="userSpaceOnUse" x="101" y="101" width="46" height="50">
<path d="M119.934 101.758L146.242 115.109L128.13 150.799L101.821 137.449L119.934 101.758Z" fill="white"/>
</mask>
<g mask="url(#mask29_33_7)">
<path d="M137.179 133.053C132.871 141.544 125.046 146.517 118.442 145.489C117.593 145.357 117.22 144.343 117.77 143.682C118.723 142.538 119.585 141.307 120.217 139.944C123.517 132.838 121.426 128.996 123.386 124.221C125.209 119.774 127.727 116.031 133.83 112.414C134.492 112.021 135.198 111.703 135.932 111.468C136.332 111.237 136.873 111.363 137.166 111.748C140.946 116.72 141.158 125.214 137.179 133.053Z" fill="white"/>
</g>
</g>
</g>
<mask id="mask30_33_7" style="mask-type:luminance" maskUnits="userSpaceOnUse" x="82" y="85" width="12" height="14">
<path d="M82.9432 85.0778H93.6161V98.495H82.9432V85.0778Z" fill="white"/>
</mask>
<g mask="url(#mask30_33_7)">
<mask id="mask31_33_7" style="mask-type:luminance" maskUnits="userSpaceOnUse" x="83" y="85" width="11" height="14">
<path d="M83.1362 86.7204L91.4649 85.2374L93.5446 96.912L85.216 98.3962L83.1362 86.7204Z" fill="white"/>
</mask>
<g mask="url(#mask31_33_7)">
<path d="M83.1362 86.7204L91.4649 85.2374L93.5458 96.9167L85.2172 98.3997L83.1362 86.7204Z" fill="white"/>
</g>
</g>
<mask id="mask32_33_7" style="mask-type:luminance" maskUnits="userSpaceOnUse" x="151" y="84" width="12" height="15">
<path d="M151.554 84.7728H162.532V98.4951H151.554V84.7728Z" fill="white"/>
</mask>
<g mask="url(#mask32_33_7)">
<mask id="mask33_33_7" style="mask-type:luminance" maskUnits="userSpaceOnUse" x="151" y="85" width="12" height="14">
<path d="M154.144 85.0218L162.413 86.8038L159.915 98.3962L151.646 96.6142L154.144 85.0218Z" fill="white"/>
</mask>
<g mask="url(#mask33_33_7)">
<path d="M154.144 85.0218L162.413 86.8038L159.914 98.401L151.645 96.619L154.144 85.0218Z" fill="white"/>
</g>
</g>
<mask id="mask34_33_7" style="mask-type:luminance" maskUnits="userSpaceOnUse" x="160" y="73" width="9" height="13">
<path d="M160.051 73.3781H168.511V85.2374H160.051V73.3781Z" fill="white"/>
</mask>
<g mask="url(#mask34_33_7)">
<path d="M160.051 73.3781H168.511V85.2421H160.051V73.3781Z" fill="white"/>
</g>
<mask id="mask35_33_7" style="mask-type:luminance" maskUnits="userSpaceOnUse" x="76" y="74" width="9" height="13">
<path d="M76.0392 74.5336H84.4988V86.3916H76.0392V74.5336Z" fill="white"/>
</mask>
<g mask="url(#mask35_33_7)">
<path d="M76.0392 74.5336H84.4988V86.3964H76.0392V74.5336Z" fill="white"/>
</g>
<mask id="mask36_33_7" style="mask-type:luminance" maskUnits="userSpaceOnUse" x="81" y="60" width="13" height="16">
<path d="M81.7234 60.0728H93.616V75.9296H81.7234V60.0728Z" fill="white"/>
</mask>
<g mask="url(#mask36_33_7)">
<mask id="mask37_33_7" style="mask-type:luminance" maskUnits="userSpaceOnUse" x="81" y="60" width="13" height="16">
<path d="M85.3744 60.105L93.5446 62.3015L89.9401 75.7069L81.7699 73.5104L85.3744 60.105Z" fill="white"/>
</mask>
<g mask="url(#mask37_33_7)">
<path d="M85.3744 60.105L93.5446 62.3015L89.9413 75.7045L81.7711 73.508L85.3744 60.105Z" fill="white"/>
</g>
</g>
<mask id="mask38_33_7" style="mask-type:luminance" maskUnits="userSpaceOnUse" x="151" y="60" width="15" height="17">
<path d="M151.859 60.0728H165.277V76.5395H151.859V60.0728Z" fill="white"/>
</mask>
<g mask="url(#mask38_33_7)">
<mask id="mask39_33_7" style="mask-type:luminance" maskUnits="userSpaceOnUse" x="151" y="60" width="15" height="17">
<path d="M151.97 63.2866L160.051 60.105L165.234 73.2662L157.153 76.4478L151.97 63.2866Z" fill="white"/>
</mask>
<g mask="url(#mask39_33_7)">
<path d="M151.97 63.2866L160.051 60.105L165.234 73.2674L157.153 76.449L151.97 63.2866Z" fill="white"/>
</g>
</g>
<mask id="mask40_33_7" style="mask-type:luminance" maskUnits="userSpaceOnUse" x="158" y="107" width="26" height="10">
<path d="M158.19 107.068H183.113V116.396H158.19V107.068Z" fill="white"/>
</mask>
<g mask="url(#mask40_33_7)">
<mask id="mask41_33_7" style="mask-type:luminance" maskUnits="userSpaceOnUse" x="158" y="107" width="26" height="10">
<path d="M162.854 107.068H178.433C181.008 107.068 183.096 109.156 183.096 111.731C183.096 114.308 181.008 116.396 178.433 116.396H162.854C160.278 116.396 158.19 114.308 158.19 111.731C158.19 109.156 160.278 107.068 162.854 107.068Z" fill="white"/>
</mask>
<g mask="url(#mask41_33_7)">
<path d="M158.19 107.068H183.113V116.396H158.19V107.068Z" fill="white"/>
</g>
</g>
<mask id="mask42_33_7" style="mask-type:luminance" maskUnits="userSpaceOnUse" x="174" y="111" width="10" height="41">
<path d="M174.304 111.731H183.096V151.934H174.304V111.731Z" fill="white"/>
</mask>
<g mask="url(#mask42_33_7)">
<path d="M174.304 111.731H183.096V151.947H174.304V111.731Z" fill="white"/>
</g>
<mask id="mask43_33_7" style="mask-type:luminance" maskUnits="userSpaceOnUse" x="154" y="147" width="30" height="11">
<path d="M154.442 147.042H183.128V157.594H154.442V147.042Z" fill="white"/>
</mask>
<g mask="url(#mask43_33_7)">
<mask id="mask44_33_7" style="mask-type:luminance" maskUnits="userSpaceOnUse" x="154" y="147" width="30" height="11">
<path d="M159.717 147.042H177.821C180.734 147.042 183.096 149.404 183.096 152.318C183.096 155.231 180.734 157.594 177.821 157.594H159.717C156.804 157.594 154.442 155.231 154.442 152.318C154.442 149.404 156.804 147.042 159.717 147.042Z" fill="white"/>
</mask>
<g mask="url(#mask44_33_7)">
<path d="M154.442 147.042H183.087V157.594H154.442V147.042Z" fill="white"/>
</g>
</g>
<mask id="mask45_33_7" style="mask-type:luminance" maskUnits="userSpaceOnUse" x="73" y="175" width="11" height="8">
<path d="M73.6366 175.806H83.042V182.846H73.6366V175.806Z" fill="white"/>
</mask>
<g mask="url(#mask45_33_7)">
<mask id="mask46_33_7" style="mask-type:luminance" maskUnits="userSpaceOnUse" x="73" y="175" width="11" height="8">
<path d="M75.9844 175.806H83.0242L80.6776 182.846H73.6366L75.9844 175.806Z" fill="white"/>
</mask>
<g mask="url(#mask46_33_7)">
<path d="M73.6366 175.806H83.0146V182.846H73.6366V175.806Z" fill="white"/>
</g>
</g>
<mask id="mask47_33_7" style="mask-type:luminance" maskUnits="userSpaceOnUse" x="84" y="175" width="10" height="8">
<path d="M84.1582 175.806H93.5625V182.846H84.1582V175.806Z" fill="white"/>
</mask>
<g mask="url(#mask47_33_7)">
<mask id="mask48_33_7" style="mask-type:luminance" maskUnits="userSpaceOnUse" x="84" y="175" width="10" height="8">
<path d="M86.5048 175.806H93.5446L91.198 182.846H84.1582L86.5048 175.806Z" fill="white"/>
</mask>
<g mask="url(#mask48_33_7)">
<path d="M84.1582 175.806H93.5351V182.846H84.1582V175.806Z" fill="white"/>
</g>
</g>
<mask id="mask49_33_7" style="mask-type:luminance" maskUnits="userSpaceOnUse" x="94" y="175" width="11" height="8">
<path d="M94.6786 175.806H104.083V182.846H94.6786V175.806Z" fill="white"/>
</mask>
<g mask="url(#mask49_33_7)">
<mask id="mask50_33_7" style="mask-type:luminance" maskUnits="userSpaceOnUse" x="94" y="175" width="11" height="8">
<path d="M97.0252 175.806H104.065L101.718 182.846H94.6786L97.0252 175.806Z" fill="white"/>
</mask>
<g mask="url(#mask50_33_7)">
<path d="M94.6786 175.806H104.055V182.846H94.6786V175.806Z" fill="white"/>
</g>
</g>
<mask id="mask51_33_7" style="mask-type:luminance" maskUnits="userSpaceOnUse" x="70" y="187" width="11" height="8">
<path d="M70.8815 187.42H80.2869V194.461H70.8815V187.42Z" fill="white"/>
</mask>
<g mask="url(#mask51_33_7)">
<mask id="mask52_33_7" style="mask-type:luminance" maskUnits="userSpaceOnUse" x="70" y="187" width="11" height="8">
<path d="M73.2293 187.42H80.269L77.9224 194.461H70.8815L73.2293 187.42Z" fill="white"/>
</mask>
<g mask="url(#mask52_33_7)">
<path d="M70.8815 187.42H80.2595V194.461H70.8815V187.42Z" fill="white"/>
</g>
</g>
<mask id="mask53_33_7" style="mask-type:luminance" maskUnits="userSpaceOnUse" x="81" y="187" width="10" height="8">
<path d="M81.2565 187.42H90.6619V194.461H81.2565V187.42Z" fill="white"/>
</mask>
<g mask="url(#mask53_33_7)">
<mask id="mask54_33_7" style="mask-type:luminance" maskUnits="userSpaceOnUse" x="81" y="187" width="10" height="8">
<path d="M83.6043 187.42H90.644L88.2974 194.461H81.2565L83.6043 187.42Z" fill="white"/>
</mask>
<g mask="url(#mask54_33_7)">
<path d="M81.2565 187.42H90.6345V194.461H81.2565V187.42Z" fill="white"/>
</g>
</g>
<mask id="mask55_33_7" style="mask-type:luminance" maskUnits="userSpaceOnUse" x="162" y="176" width="11" height="8">
<path d="M162.646 176.341H172.052V183.381H162.646V176.341Z" fill="white"/>
</mask>
<g mask="url(#mask55_33_7)">
<mask id="mask56_33_7" style="mask-type:luminance" maskUnits="userSpaceOnUse" x="162" y="176" width="11" height="8">
<path d="M169.687 176.341H162.646L164.993 183.381H172.034L169.687 176.341Z" fill="white"/>
</mask>
<g mask="url(#mask56_33_7)">
<path d="M162.646 176.341H172.025V183.381H162.646V176.341Z" fill="white"/>
</g>
</g>
<mask id="mask57_33_7" style="mask-type:luminance" maskUnits="userSpaceOnUse" x="152" y="175" width="10" height="8">
<path d="M152.117 175.806H161.522V182.846H152.117V175.806Z" fill="white"/>
</mask>
<g mask="url(#mask57_33_7)">
<mask id="mask58_33_7" style="mask-type:luminance" maskUnits="userSpaceOnUse" x="152" y="175" width="10" height="8">
<path d="M159.156 175.806H152.117L154.463 182.846H161.503L159.156 175.806Z" fill="white"/>
</mask>
<g mask="url(#mask58_33_7)">
<path d="M152.117 175.806H161.495V182.846H152.117V175.806Z" fill="white"/>
</g>
</g>
<mask id="mask59_33_7" style="mask-type:luminance" maskUnits="userSpaceOnUse" x="141" y="175" width="10" height="8">
<path d="M141.585 175.806H150.991V182.846H141.585V175.806Z" fill="white"/>
</mask>
<g mask="url(#mask59_33_7)">
<mask id="mask60_33_7" style="mask-type:luminance" maskUnits="userSpaceOnUse" x="141" y="175" width="10" height="8">
<path d="M148.626 175.806H141.585L143.932 182.846H150.973L148.626 175.806Z" fill="white"/>
</mask>
<g mask="url(#mask60_33_7)">
<path d="M141.585 175.806H150.963V182.846H141.585V175.806Z" fill="white"/>
</g>
</g>
<mask id="mask61_33_7" style="mask-type:luminance" maskUnits="userSpaceOnUse" x="93" y="187" width="44" height="8">
<path d="M93.89 187.42H136.02V194.461H93.89V187.42Z" fill="white"/>
</mask>
<g mask="url(#mask61_33_7)">
<mask id="mask62_33_7" style="mask-type:luminance" maskUnits="userSpaceOnUse" x="93" y="187" width="44" height="8">
<path d="M96.8632 187.42H133.041C133.83 187.42 134.586 187.734 135.144 188.291C135.701 188.85 136.014 189.605 136.014 190.393V191.488C136.014 192.277 135.701 193.033 135.144 193.591C134.586 194.148 133.83 194.461 133.041 194.461H96.8632C96.0746 194.461 95.3182 194.148 94.7608 193.591C94.2033 193.033 93.89 192.277 93.89 191.488V190.393C93.89 189.605 94.2033 188.85 94.7608 188.291C95.3182 187.734 96.0746 187.42 96.8632 187.42Z" fill="white"/>
</mask>
<g mask="url(#mask62_33_7)">
<path d="M93.89 187.42H136.02V194.461H93.89V187.42Z" fill="white"/>
</g>
</g>
<mask id="mask63_33_7" style="mask-type:luminance" maskUnits="userSpaceOnUse" x="131" y="175" width="10" height="8">
<path d="M131.056 175.884H140.461V182.924H131.056V175.884Z" fill="white"/>
</mask>
<g mask="url(#mask63_33_7)">
<mask id="mask64_33_7" style="mask-type:luminance" maskUnits="userSpaceOnUse" x="131" y="175" width="10" height="8">
<path d="M138.095 175.884H131.056L133.402 182.924H140.442L138.095 175.884Z" fill="white"/>
</mask>
<g mask="url(#mask64_33_7)">
<path d="M131.056 175.884H140.434V182.924H131.056V175.884Z" fill="white"/>
</g>
</g>
<mask id="mask65_33_7" style="mask-type:luminance" maskUnits="userSpaceOnUse" x="105" y="175" width="10" height="8">
<path d="M105.208 175.73H114.614V182.771H105.208V175.73Z" fill="white"/>
</mask>
<g mask="url(#mask65_33_7)">
<mask id="mask66_33_7" style="mask-type:luminance" maskUnits="userSpaceOnUse" x="105" y="175" width="10" height="8">
<path d="M107.555 175.73H114.595L112.248 182.771H105.208L107.555 175.73Z" fill="white"/>
</mask>
<g mask="url(#mask66_33_7)">
<path d="M105.208 175.73H114.587V182.771H105.208V175.73Z" fill="white"/>
</g>
</g>
<mask id="mask67_33_7" style="mask-type:luminance" maskUnits="userSpaceOnUse" x="120" y="175" width="10" height="8">
<path d="M120.524 175.884H129.904V182.924H120.524V175.884Z" fill="white"/>
</mask>
<g mask="url(#mask67_33_7)">
<mask id="mask68_33_7" style="mask-type:luminance" maskUnits="userSpaceOnUse" x="120" y="175" width="10" height="8">
<path d="M127.565 175.884H120.524L122.871 182.924H129.912L127.565 175.884Z" fill="white"/>
</mask>
<g mask="url(#mask68_33_7)">
<path d="M120.524 175.884H129.902V182.924H120.524V175.884Z" fill="white"/>
</g>
</g>
<mask id="mask69_33_7" style="mask-type:luminance" maskUnits="userSpaceOnUse" x="163" y="186" width="10" height="8">
<path d="M163.557 186.812H172.962V193.851H163.557V186.812Z" fill="white"/>
</mask>
<g mask="url(#mask69_33_7)">
<mask id="mask70_33_7" style="mask-type:luminance" maskUnits="userSpaceOnUse" x="163" y="186" width="10" height="8">
<path d="M170.597 186.812H163.557L165.904 193.851H172.944L170.597 186.812Z" fill="white"/>
</mask>
<g mask="url(#mask70_33_7)">
<path d="M163.557 186.812H172.935V193.851H163.557V186.812Z" fill="white"/>
</g>
</g>
<mask id="mask71_33_7" style="mask-type:luminance" maskUnits="userSpaceOnUse" x="153" y="186" width="10" height="8">
<path d="M153.027 186.277H162.432V193.318H153.027V186.277Z" fill="white"/>
</mask>
<g mask="url(#mask71_33_7)">
<mask id="mask72_33_7" style="mask-type:luminance" maskUnits="userSpaceOnUse" x="153" y="186" width="10" height="8">
<path d="M160.066 186.277H153.027L155.373 193.318H162.413L160.066 186.277Z" fill="white"/>
</mask>
<g mask="url(#mask72_33_7)">
<path d="M153.027 186.277H162.405V193.318H153.027V186.277Z" fill="white"/>
</g>
</g>
<mask id="mask73_33_7" style="mask-type:luminance" maskUnits="userSpaceOnUse" x="142" y="186" width="10" height="8">
<path d="M142.495 186.277H151.901V193.318H142.495V186.277Z" fill="white"/>
</mask>
<g mask="url(#mask73_33_7)">
<mask id="mask74_33_7" style="mask-type:luminance" maskUnits="userSpaceOnUse" x="142" y="186" width="10" height="8">
<path d="M149.536 186.277H142.495L144.843 193.318H151.883L149.536 186.277Z" fill="white"/>
</mask>
<g mask="url(#mask74_33_7)">
<path d="M142.495 186.277H151.874V193.318H142.495V186.277Z" fill="white"/>
</g>
</g>
<mask id="mask75_33_7" style="mask-type:luminance" maskUnits="userSpaceOnUse" x="112" y="26" width="24" height="32">
<path d="M112.827 26.8346H135.393V57.0235H112.827V26.8346Z" fill="white"/>
</mask>
<g mask="url(#mask75_33_7)">
<mask id="mask76_33_7" style="mask-type:luminance" maskUnits="userSpaceOnUse" x="103" y="23" width="39" height="37">
<path d="M114.595 23.4124L141.164 34.57L130.537 59.8739L103.969 48.7151L114.595 23.4124Z" fill="white"/>
</mask>
<g mask="url(#mask76_33_7)">
<mask id="mask77_33_7" style="mask-type:luminance" maskUnits="userSpaceOnUse" x="104" y="23" width="38" height="37">
<path d="M141.259 34.6105L114.69 23.4517L104.064 48.7556L130.633 59.9144L141.259 34.6105Z" fill="white"/>
</mask>
<g mask="url(#mask77_33_7)">
<path fill-rule="evenodd" clip-rule="evenodd" d="M118.658 30.4164C131.253 35.6385 135.537 44.3423 131.012 56.7352C130.956 56.89 131.175 56.9925 131.261 56.8507C133.488 53.1164 134.898 49.4536 135.212 45.8849C136.246 34.109 124.133 27.4206 113.753 26.9251C113.236 26.9001 112.902 27.4409 113.15 27.8959C117.812 36.458 110.422 51.3773 130.299 51.9134C131.113 42.4996 127.8 35.0619 118.658 30.4164Z" fill="white"/>
</g>
</g>
</g>
<mask id="mask78_33_7" style="mask-type:luminance" maskUnits="userSpaceOnUse" x="88" y="152" width="67" height="5">
<path d="M88.8514 152.318H154.442V156.585H88.8514V152.318Z" fill="white"/>
</mask>
<g mask="url(#mask78_33_7)">
<path d="M88.8514 152.318H154.449V156.585H88.8514V152.318Z" fill="white"/>
</g>
</svg>
